<?xml version="1.0" encoding="UTF-8"?>
<svg id="Layer_2" data-name="Layer 2" xmlns="http://www.w3.org/2000/svg" viewBox="0 0 317.12 317.09">
  <defs>
    <style>
      .cls-1 {
        font-size: 72px;
      }

      .cls-1, .cls-2 {
        font-family: Broadway, Broadway;
      }

      .cls-1, .cls-2, .cls-3 {
        fill: #fff;
      }

      .cls-2 {
        font-size: 80px;
      }

      .cls-4 {
        fill: #0e9fe1;
      }

      .cls-4, .cls-5, .cls-3 {
        stroke-width: 0px;
      }

      .cls-5 {
        fill: none;
      }
    </style>
  </defs>
  <g id="Layer_3" data-name="Layer 3">
    <path class="cls-4" d="M93.32,302.15c-1.44-2.15-3.1-4.64-4.37-6.53-1.25-1.86-3.34-2.97-5.58-2.97h-7.86c-2.66,0-5.07-1.57-6.14-4-1.04-2.37-2.25-5.11-3.17-7.19-.9-2.05-2.76-3.51-4.97-3.9-2.25-.4-5.2-.92-7.75-1.37-2.62-.46-4.71-2.43-5.35-5.01l-1.87-7.63c-.53-2.18-2.12-3.94-4.22-4.71l-7.38-2.69c-2.5-.91-4.23-3.21-4.4-5.86-.17-2.58-.37-5.57-.52-7.84-.15-2.24-1.4-4.24-3.34-5.36-1.97-1.14-4.57-2.64-6.81-3.93-2.3-1.33-3.6-3.89-3.31-6.54l.85-7.81c.24-2.23-.64-4.43-2.36-5.87l-6.02-5.05c-2.04-1.71-2.88-4.46-2.13-7.01.72-2.48,1.56-5.36,2.19-7.55.63-2.15.14-4.46-1.3-6.18-1.47-1.75-3.39-4.05-5.06-6.03-1.71-2.04-2.05-4.89-.88-7.27l3.47-7.05c.99-2.01.91-4.37-.21-6.31-1.14-1.97-2.64-4.57-3.93-6.81-1.33-2.3-1.17-5.17.4-7.32l4.64-6.34c1.32-1.81,1.66-4.15.89-6.25-.78-2.14-1.81-4.96-2.69-7.39-.91-2.5-.26-5.29,1.66-7.14l5.67-5.44c1.62-1.55,2.35-3.8,1.97-6-.4-2.25-.92-5.2-1.37-7.75-.46-2.62.67-5.26,2.88-6.74l6.53-4.37c1.86-1.25,2.98-3.33,2.98-5.57v-7.87c0-2.66,1.57-5.06,4-6.14l7.19-3.17c2.05-.9,3.51-2.76,3.9-4.97.4-2.25.92-5.2,1.37-7.75.46-2.62,2.43-4.71,5.01-5.35l7.63-1.87c2.18-.53,3.94-2.12,4.71-4.22l2.69-7.38c.91-2.5,3.21-4.23,5.86-4.4,2.58-.17,5.57-.37,7.84-.52,2.24-.15,4.24-1.4,5.36-3.34l3.93-6.8c1.33-2.3,3.89-3.61,6.54-3.32,2.57.28,5.55.6,7.82.85,2.23.24,4.42-.64,5.86-2.35,1.47-1.75,3.39-4.04,5.06-6.03,1.71-2.04,4.46-2.87,7.01-2.13l7.54,2.19c2.15.62,4.47.14,6.19-1.3l6.02-5.05c2.04-1.71,4.89-2.06,7.28-.88,2.32,1.14,5.01,2.47,7.05,3.47,2.01.99,4.37.91,6.31-.21,1.97-1.14,4.57-2.64,6.81-3.93,2.3-1.33,5.17-1.17,7.32.4l6.34,4.64c1.81,1.32,4.16,1.66,6.26.89l7.38-2.69c2.5-.91,5.3-.26,7.14,1.66,1.79,1.87,3.86,4.03,5.44,5.68,1.55,1.62,3.8,2.35,6.01,1.96l7.74-1.36c2.62-.46,5.26.66,6.74,2.87,1.44,2.15,3.1,4.64,4.37,6.53,1.25,1.86,3.34,2.97,5.58,2.97h7.86c2.66,0,5.07,1.57,6.14,4,1.04,2.37,2.25,5.11,3.17,7.19.9,2.05,2.77,3.51,4.97,3.9l7.74,1.36c2.62.46,4.72,2.42,5.35,5.01.62,2.51,1.33,5.42,1.87,7.63.53,2.18,2.12,3.94,4.22,4.7l7.38,2.69c2.5.91,4.23,3.21,4.4,5.86.17,2.58.37,5.57.52,7.84.15,2.24,1.4,4.24,3.34,5.36l6.8,3.93c2.3,1.33,3.61,3.89,3.32,6.54-.28,2.57-.6,5.55-.85,7.82-.24,2.23.64,4.42,2.36,5.86l6.02,5.05c2.04,1.71,2.88,4.46,2.13,7.01-.72,2.48-1.56,5.36-2.19,7.55-.63,2.15-.13,4.47,1.31,6.18l5.05,6.02c1.71,2.04,2.06,4.89.88,7.28-1.14,2.32-2.47,5.01-3.47,7.05-.99,2.01-.91,4.38.21,6.32l3.93,6.8c1.33,2.3,1.18,5.17-.39,7.32-1.53,2.09-3.3,4.5-4.64,6.34-1.32,1.81-1.66,4.15-.89,6.25.78,2.14,1.81,4.96,2.69,7.39.91,2.5.26,5.29-1.66,7.14l-5.67,5.44c-1.62,1.55-2.35,3.8-1.97,6,.4,2.25.92,5.2,1.37,7.75.46,2.62-.67,5.26-2.88,6.74l-6.53,4.37c-1.86,1.25-2.98,3.33-2.98,5.57v7.87c0,2.66-1.57,5.06-4,6.14l-7.19,3.17c-2.05.9-3.51,2.77-3.9,4.98l-1.36,7.74c-.46,2.62-2.42,4.72-5.01,5.35-2.51.62-5.42,1.33-7.63,1.87-2.18.53-3.94,2.12-4.7,4.22l-2.69,7.38c-.91,2.5-3.21,4.23-5.86,4.4-2.58.17-5.57.37-7.84.52-2.24.15-4.24,1.4-5.36,3.34l-3.93,6.8c-1.33,2.3-3.89,3.61-6.54,3.32-2.57-.28-5.55-.6-7.82-.85-2.23-.24-4.42.64-5.86,2.36l-5.05,6.02c-1.71,2.04-4.46,2.88-7.01,2.13-2.48-.72-5.36-1.56-7.55-2.19-2.15-.63-4.47-.13-6.18,1.31l-6.02,5.05c-2.04,1.71-4.89,2.06-7.28.88-2.32-1.14-5.01-2.47-7.05-3.47-2.01-.99-4.38-.91-6.32.21l-6.8,3.93c-2.3,1.33-5.17,1.18-7.32-.39-2.09-1.53-4.5-3.3-6.34-4.64-1.81-1.32-4.15-1.65-6.26-.89l-7.38,2.69c-2.5.91-5.3.26-7.14-1.66-1.79-1.87-3.86-4.03-5.44-5.68-1.55-1.62-3.8-2.35-6.01-1.96l-7.74,1.36c-2.65.46-5.29-.66-6.77-2.87Z"/>
    <path class="cls-3" d="M224.87,189.15s4.83,2.36,8.28,4.06c-.27,3.83-.65,9.19-.65,9.19,0,0,3.74-3.87,6.41-6.62,3.56,1.45,8.54,3.46,8.54,3.46,0,0-2.52-4.75-4.32-8.14,2.48-2.94,5.93-7.05,5.93-7.05,0,0-5.3.93-9.08,1.59-2.03-3.26-4.87-7.82-4.87-7.82,0,0-.75,5.33-1.29,9.12-3.68.9-8.82,2.17-8.95,2.21Z"/>
    <path class="cls-3" d="M24.35,197.57c-1.82-6.11-3.23-12.4-4.21-18.83,3.16,2.86,7.62,6.88,11.18,10.1,14.02,57.25,65.66,99.72,127.23,99.72,72.35,0,131-58.66,131-131,0-8.68-.84-17.15-2.45-25.36,1.92-1.93,5.37-5.38,7.56-7.57,2.55,10.56,3.89,21.58,3.89,32.93,0,77.32-62.68,140-140,140-63.42,0-116.98-42.16-134.2-99.99Z"/>
    <path class="cls-3" d="M41.23,81.11c24.99-38.26,68.2-63.55,117.32-63.55,46.58,0,87.85,22.75,113.3,57.75-2.77.99-6.62,2.36-8.86,3.17-23.92-31.54-61.8-51.92-104.44-51.92s-84.18,22.39-107.83,56.57h-10.78c.43-.68.86-1.35,1.29-2.02Z"/>
    <path id="SVGID_1_" class="cls-5" d="M267.16,156.13c0,60.2-48.8,109-109,109s-109-48.8-109-109,48.8-109,109-109,109,48.8,109,109Z"/>
    <path class="cls-3" d="M55.09,102.7l111.96-16.28-15.09-3.04,35.81-27.18s5.7-3.97,15.82.84-10.64,20.38-10.64,20.38l-37.56,29.53s2.65,3.8-36.14,10.49c0,0-.88,1.17-2.65-3.8,0,0-31.62,5.64-31.77,4.62s1.75-2.35,5.85-2.94,28.54-5.2,28.54-5.2l7.45-6.32-76.87,3.85s-11.69-7.03,1.82-4.97c1.14.17,2.31.19,3.45.02Z"/>
    <polygon class="cls-3" points="107.74 83.64 111.54 80.99 122.25 89.9 113.33 93.29 107.74 83.64"/>
    <polygon class="cls-3" points="167.96 99.88 193.12 85.76 224.88 81.14 224.58 79.09 230.15 81.42 218.6 88.33 167.96 99.88"/>
    <text class="cls-1" transform="translate(31.23 192.77) rotate(-11.47) scale(1.04 1)"><tspan x="0" y="0">T</tspan></text>
    <text class="cls-1" transform="translate(77.47 183.39) rotate(-11.48) scale(1.04 1)"><tspan x="0" y="0">r</tspan></text>
    <text class="cls-1" transform="translate(114.54 175.86) rotate(-11.48) scale(1.04 1)"><tspan x="0" y="0">a</tspan></text>
    <text class="cls-1" transform="translate(164.25 165.77) rotate(-11.48) scale(1.04 1)"><tspan x="0" y="0">v</tspan></text>
    <text class="cls-1" transform="translate(207.92 156.9) rotate(-11.48) scale(1.04 1)"><tspan x="0" y="0">e</tspan></text>
    <text class="cls-1" transform="translate(251.91 147.97) rotate(-11.48) scale(1.04 1)"><tspan x="0" y="0">l</tspan></text>
    <text class="cls-2" transform="translate(121.84 264.66) rotate(-11.47) scale(1.04 1)"><tspan x="0" y="0">U</tspan></text>
    <text class="cls-2" transform="translate(183.2 252.21) rotate(-11.48) scale(1.04 1)"><tspan x="0" y="0">S</tspan></text>
  </g>
</svg>