<?xml version="1.0" encoding="UTF-8"?>
<svg id="Layer_2" data-name="Layer 2" xmlns="http://www.w3.org/2000/svg" viewBox="0 0 612 612">
  <defs>
    <style>
      .cls-1 {
        fill: #0e9fe1;
        stroke-width: 0px;
      }
    </style>
  </defs>
  <g id="Layer_1-2" data-name="Layer 1">
    <path class="cls-1" d="M306,61c33.1,0,65.18,6.47,95.35,19.23,29.17,12.34,55.37,30.01,77.89,52.53,22.52,22.52,40.19,48.73,52.53,77.89,12.76,30.17,19.23,62.24,19.23,95.35s-6.47,65.18-19.23,95.35c-12.34,29.17-30.01,55.37-52.53,77.89-22.52,22.52-48.73,40.19-77.89,52.53-30.17,12.76-62.24,19.23-95.35,19.23s-65.18-6.47-95.35-19.23c-29.17-12.34-55.37-30.01-77.89-52.53-22.52-22.52-40.19-48.73-52.53-77.89-12.76-30.17-19.23-62.24-19.23-95.35s6.47-65.18,19.23-95.35c12.34-29.17,30.01-55.37,52.53-77.89,22.52-22.52,48.73-40.19,77.89-52.53,30.17-12.76,62.24-19.23,95.35-19.23M306,0C137,0,0,137,0,306s137,306,306,306,306-137,306-306S475,0,306,0h0Z"/>
  </g>
</svg>