<?xml version="1.0" encoding="UTF-8"?>
<svg id="Layer_2" data-name="Layer 2" xmlns="http://www.w3.org/2000/svg" viewBox="0 0 612 612">
  <defs>
    <style>
      .cls-1 {
        fill: #0e9fe1;
        stroke-width: 0px;
      }
    </style>
  </defs>
  <g id="Layer_1-2" data-name="Layer 1">
    <g>
      <path class="cls-1" d="M306,609c-80.93,0-157.02-31.52-214.25-88.75C34.52,463.02,3,386.93,3,306s31.52-157.02,88.75-214.25C148.98,34.52,225.07,3,306,3s157.02,31.52,214.25,88.75c57.23,57.23,88.75,133.32,88.75,214.25s-31.52,157.02-88.75,214.25c-57.23,57.23-133.32,88.75-214.25,88.75Z"/>
      <path class="cls-1" d="M306,6c40.5,0,79.79,7.93,116.77,23.57,35.72,15.11,67.81,36.74,95.36,64.29,27.55,27.55,49.19,59.64,64.29,95.36,15.64,36.98,23.57,76.27,23.57,116.77s-7.93,79.79-23.57,116.77c-15.11,35.72-36.74,67.81-64.29,95.36-27.55,27.55-59.64,49.19-95.36,64.29-36.98,15.64-76.27,23.57-116.77,23.57s-79.79-7.93-116.77-23.57c-35.72-15.11-67.81-36.74-95.36-64.29-27.55-27.55-49.19-59.64-64.29-95.36-15.64-36.98-23.57-76.27-23.57-116.77s7.93-79.79,23.57-116.77c15.11-35.72,36.74-67.81,64.29-95.36,27.55-27.55,59.64-49.19,95.36-64.29,36.98-15.64,76.27-23.57,116.77-23.57M306,0C137,0,0,137,0,306s137,306,306,306,306-137,306-306S475,0,306,0h0Z"/>
    </g>
  </g>
</svg>