<?xml version="1.0" encoding="UTF-8"?>
<svg id="Layer_2" data-name="Layer 2" xmlns="http://www.w3.org/2000/svg" viewBox="0 0 63.55 44.76">
  <defs>
    <style>
      .cls-1 {
        fill: #0e9fe1;
      }

      .cls-1, .cls-2 {
        stroke-width: 0px;
      }

      .cls-2 {
        fill: none;
      }
    </style>
  </defs>
  <g id="Layer_3" data-name="Layer 3">
    <path class="cls-2" d="M41.02,22.62c0,5.14-4.16,9.31-9.3,9.31s-9.31-4.17-9.31-9.31,4.16-9.31,9.31-9.31c.6,0,1.19.06,1.76.17-.48.84-.75,1.82-.75,2.87,0,3.23,2.62,5.85,5.85,5.85.85,0,1.66-.18,2.39-.51.03.3.05.62.05.93Z"/>
    <path class="cls-1" d="M40.59,7.53c-1.23-.37-4.25-1.27-7.71-1.48C16.13,5.04,2.8,21.06,0,24.55c2.78,2.75,16.12,15.46,32.88,14.65,3.46-.16,6.48-.88,7.71-1.17,12.23-2.95,19.53-9.81,22.84-13.48-3.32-4.63-10.62-13.31-22.84-17.02ZM31.72,36.6c-7.72,0-13.98-6.26-13.98-13.98s6.26-13.97,13.98-13.97c2.54,0,4.91.67,6.96,1.85,2.5,1.45,4.52,3.64,5.73,6.28.82,1.78,1.28,3.75,1.28,5.84,0,7.72-6.26,13.98-13.97,13.98Z"/>
    <path class="cls-2" d="M63.55,24.72c-.04-.06-.08-.11-.12-.17"/>
    <path class="cls-2" d="M63.55,24.42s-.08.08-.12.13"/>
    <path class="cls-2" d="M41.02,22.62c0,5.14-4.16,9.31-9.3,9.31s-9.31-4.17-9.31-9.31,4.16-9.31,9.31-9.31c.6,0,1.19.06,1.76.17-.48.84-.75,1.82-.75,2.87,0,3.23,2.62,5.85,5.85,5.85.85,0,1.66-.18,2.39-.51.03.3.05.62.05.93Z"/>
    <path class="cls-2" d="M41.02,22.62c0,5.14-4.16,9.31-9.3,9.31s-9.31-4.17-9.31-9.31,4.16-9.31,9.31-9.31c.6,0,1.19.06,1.76.17-.48.84-.75,1.82-.75,2.87,0,3.23,2.62,5.85,5.85,5.85.85,0,1.66-.18,2.39-.51.03.3.05.62.05.93Z"/>
    <path class="cls-1" d="M40.97,21.69c.03.3.05.62.05.93,0,5.14-4.16,9.31-9.3,9.31s-9.31-4.17-9.31-9.31,4.16-9.31,9.31-9.31c.6,0,1.19.06,1.76.17-.48.84-.75,1.82-.75,2.87,0,3.23,2.62,5.85,5.85,5.85.85,0,1.66-.18,2.39-.51Z"/>
    <rect class="cls-1" x="1.93" y="20.27" width="59.08" height="4.22" transform="translate(25.04 -15.7) rotate(45)"/>
  </g>
</svg>